REM DIRINDEX 1\2,1\3,1\4,1\5\6,1\5\7,1\8
REM DIRNAME folder01,folder02,folder03,folder04,folder05,folder06,folder07,folder08
TITLE ""
FILE "107 【107】Unit6 (1213 highlight_1224 storage).mp3" MP3
  TRACK 01 AUDIO
    TITLE "0:"
    INDEX 01 00:00:00
  TRACK 02 AUDIO
    TITLE "2:cjc115_4162"
    INDEX 01 00:00:07
  TRACK 03 AUDIO
    TITLE "0:"
    INDEX 01 00:01:17
  TRACK 04 AUDIO
    TITLE "3:cjc115_4163"
    INDEX 01 00:01:28
  TRACK 05 AUDIO
    TITLE "0:"
    INDEX 01 00:04:11
  TRACK 06 AUDIO
    TITLE "4:cjc115_4164"
    INDEX 01 00:04:19
  TRACK 07 AUDIO
    TITLE "0:"
    INDEX 01 00:09:02
  TRACK 08 AUDIO
    TITLE "2:cjc115_4165"
    INDEX 01 00:10:12
  TRACK 09 AUDIO
    TITLE "0:"
    INDEX 01 00:11:29
  TRACK 10 AUDIO
    TITLE "3:cjc115_4166"
    INDEX 01 00:11:33
  TRACK 11 AUDIO
    TITLE "0:"
    INDEX 01 00:13:18
  TRACK 12 AUDIO
    TITLE "4:cjc115_4167"
    INDEX 01 00:13:26
  TRACK 13 AUDIO
    TITLE "0:"
    INDEX 01 00:16:53
  TRACK 14 AUDIO
    TITLE "2:cjc115_4168"
    INDEX 01 00:17:65
  TRACK 15 AUDIO
    TITLE "0:"
    INDEX 01 00:18:68
  TRACK 16 AUDIO
    TITLE "3:cjc115_4169"
    INDEX 01 00:19:05
  TRACK 17 AUDIO
    TITLE "0:"
    INDEX 01 00:20:08
  TRACK 18 AUDIO
    TITLE "4:cjc115_4170"
    INDEX 01 00:20:16
  TRACK 19 AUDIO
    TITLE "0:"
    INDEX 01 00:24:65
  TRACK 20 AUDIO
    TITLE "2:cjc115_4171"
    INDEX 01 00:25:72
  TRACK 21 AUDIO
    TITLE "0:"
    INDEX 01 00:27:12
  TRACK 22 AUDIO
    TITLE "3:cjc115_4172"
    INDEX 01 00:27:18
  TRACK 23 AUDIO
    TITLE "0:"
    INDEX 01 00:29:62
  TRACK 24 AUDIO
    TITLE "4:cjc115_4173"
    INDEX 01 00:29:70
  TRACK 25 AUDIO
    TITLE "0:"
    INDEX 01 00:33:26
  TRACK 26 AUDIO
    TITLE "2:cjc115_4174"
    INDEX 01 00:34:36
  TRACK 27 AUDIO
    TITLE "0:"
    INDEX 01 00:35:59
  TRACK 28 AUDIO
    TITLE "3:cjc115_4175"
    INDEX 01 00:36:01
  TRACK 29 AUDIO
    TITLE "0:"
    INDEX 01 00:37:03
  TRACK 30 AUDIO
    TITLE "4:cjc115_4176"
    INDEX 01 00:37:10
  TRACK 31 AUDIO
    TITLE "0:"
    INDEX 01 00:40:73
  TRACK 32 AUDIO
    TITLE "2:cjc115_4177"
    INDEX 01 00:42:06
  TRACK 33 AUDIO
    TITLE "0:"
    INDEX 01 00:43:17
  TRACK 34 AUDIO
    TITLE "3:cjc115_4178"
    INDEX 01 00:43:27
  TRACK 35 AUDIO
    TITLE "0:"
    INDEX 01 00:45:51
  TRACK 36 AUDIO
    TITLE "4:cjc115_4179"
    INDEX 01 00:45:59
  TRACK 37 AUDIO
    TITLE "0:"
    INDEX 01 00:49:20
  TRACK 38 AUDIO
    TITLE "2:cjc115_4180"
    INDEX 01 00:50:37
  TRACK 39 AUDIO
    TITLE "0:"
    INDEX 01 00:51:56
  TRACK 40 AUDIO
    TITLE "3:cjc115_4181"
    INDEX 01 00:51:65
  TRACK 41 AUDIO
    TITLE "0:"
    INDEX 01 00:54:21
  TRACK 42 AUDIO
    TITLE "4:cjc115_4182"
    INDEX 01 00:54:38
  TRACK 43 AUDIO
    TITLE "0:"
    INDEX 01 00:57:41
  TRACK 44 AUDIO
    TITLE "2:cjc115_4183"
    INDEX 01 00:58:46
  TRACK 45 AUDIO
    TITLE "0:"
    INDEX 01 00:59:51
  TRACK 46 AUDIO
    TITLE "3:cjc115_4184"
    INDEX 01 00:59:59
  TRACK 47 AUDIO
    TITLE "0:"
    INDEX 01 01:01:03
  TRACK 48 AUDIO
    TITLE "4:cjc115_4185"
    INDEX 01 01:01:15
  TRACK 49 AUDIO
    TITLE "0:"
    INDEX 01 01:04:35
  TRACK 50 AUDIO
    TITLE "2:cjc115_4186"
    INDEX 01 01:05:44
  TRACK 51 AUDIO
    TITLE "0:"
    INDEX 01 01:06:59
  TRACK 52 AUDIO
    TITLE "3:cjc115_4187"
    INDEX 01 01:06:63
  TRACK 53 AUDIO
    TITLE "0:"
    INDEX 01 01:09:20
  TRACK 54 AUDIO
    TITLE "4:cjc115_4188"
    INDEX 01 01:09:34
  TRACK 55 AUDIO
    TITLE "0:"
    INDEX 01 01:13:44
  TRACK 56 AUDIO
    TITLE "2:cjc115_4189"
    INDEX 01 01:14:49
  TRACK 57 AUDIO
    TITLE "0:"
    INDEX 01 01:15:66
  TRACK 58 AUDIO
    TITLE "3:cjc115_4190"
    INDEX 01 01:15:72
  TRACK 59 AUDIO
    TITLE "0:"
    INDEX 01 01:16:71
  TRACK 60 AUDIO
    TITLE "4:cjc115_4191"
    INDEX 01 01:17:12
  TRACK 61 AUDIO
    TITLE "0:"
    INDEX 01 01:21:39
  TRACK 62 AUDIO
    TITLE "2:cjc115_4192"
    INDEX 01 01:22:46
  TRACK 63 AUDIO
    TITLE "0:"
    INDEX 01 01:24:00
  TRACK 64 AUDIO
    TITLE "3:cjc115_4193"
    INDEX 01 01:24:08
  TRACK 65 AUDIO
    TITLE "0:"
    INDEX 01 01:25:33
  TRACK 66 AUDIO
    TITLE "4:cjc115_4194"
    INDEX 01 01:25:41
  TRACK 67 AUDIO
    TITLE "0:"
    INDEX 01 01:30:17
  TRACK 68 AUDIO
    TITLE "2:cjc115_4195"
    INDEX 01 01:31:24
  TRACK 69 AUDIO
    TITLE "0:"
    INDEX 01 01:32:47
  TRACK 70 AUDIO
    TITLE "3:cjc115_4196"
    INDEX 01 01:32:57
  TRACK 71 AUDIO
    TITLE "0:"
    INDEX 01 01:33:72
  TRACK 72 AUDIO
    TITLE "4:cjc115_4197"
    INDEX 01 01:34:03
  TRACK 73 AUDIO
    TITLE "0:"
    INDEX 01 01:37:71
